# xmcd
#
# Track frame offsets:
#	150
#	15707
#	39732
#	55322
#	79770
#	107735
#	128975
#	147287
#	165757
#	180487
#	196625
#	213197
#
# Disc length: 3115 seconds
#
# Revision: 0
# Processed by: cddbd v1.5.1PL0 Copyright (c) Steve Scherf et al.
# Submitted via: EasyCDDAExtractor 5.0.5.1
#
DISCID=970c290c
DTITLE=Various Artist - Smokin' Blues - Jazz&Τζαζ Issue 143
DYEAR=2005
DGENRE=Blues
TTITLE0=Big Jack Johnson and The Oilers - Black Dog
TTITLE1=Kim Wilson - Smokin' Joint
TTITLE2=The Phillip Walker Big Band - Reconsider Baby
TTITLE3=Luther "Guitar, Jr." Johnson - Five Long Years
TTITLE4=Big Jack Johnson and The Oilers - Crack Headed Woman
TTITLE5=R.L. Burnside - Rolling and Tumbling
TTITLE6=Joan Osborne With The Holmes Brothers - Nobody's Fault But Mine
TTITLE7=Odetta - Unemployment Blues
TTITLE8=Joanna Connor - Different Kind of War
TTITLE9=Big Jack Johnson - Dust My Broom
TTITLE10=R.L. Burnside - When My First Wife Left Me
TTITLE11=Odetta - Bourgeois Blues 
EXTD=Jazz&Τζαζ Issue 143, Φεβρουάριος 2005\n
EXTT0=
EXTT1=
EXTT2=
EXTT3=
EXTT4=
EXTT5=
EXTT6=
EXTT7=
EXTT8=
EXTT9=
EXTT10=
EXTT11=
PLAYORDER=
